<?xml version="1.0" standalone="no"?>
<!DOCTYPE svg PUBLIC "-//W3C//DTD SVG 20010904//EN"
 "http://www.w3.org/TR/2001/REC-SVG-20010904/DTD/svg10.dtd">
<svg version="1.0" xmlns="http://www.w3.org/2000/svg"
 width="192.000000pt" height="227.000000pt" viewBox="0 0 192.000000 227.000000"
 preserveAspectRatio="xMidYMid meet">

<g transform="translate(0.000000,227.000000) scale(0.100000,-0.100000)"
fill="#000000" stroke="none">
<path d="M878 2202 l-77 -46 61 -88 c34 -49 64 -85 68 -81 10 12 100 210 100
219 0 9 -57 45 -68 43 -4 0 -42 -22 -84 -47z"/>
<path d="M1005 2066 l-57 -124 123 -179 c68 -98 135 -195 150 -216 l27 -37
117 216 c96 178 114 219 103 229 -13 12 -394 235 -401 235 -2 0 -30 -56 -62
-124z"/>
<path d="M392 1917 l-382 -222 0 -52 0 -52 235 -286 235 -286 28 63 c131 284
396 845 403 853 6 5 9 4 9 -3 0 -7 5 -12 10 -12 6 0 10 9 10 19 0 11 -4 23
-10 26 -5 3 -10 1 -10 -4 0 -26 -21 -4 -82 84 l-65 94 -381 -222z"/>
<path d="M1390 1704 l-122 -225 47 -72 c98 -147 417 -612 428 -624 9 -9 31 24
95 141 l82 153 0 309 0 309 -172 100 c-94 55 -186 108 -204 117 l-32 18 -122
-226z"/>
<path d="M740 1503 c-102 -217 -197 -422 -212 -454 l-27 -59 135 -165 c75 -91
138 -165 142 -165 4 0 106 182 226 405 121 223 223 405 228 405 4 0 8 -5 8
-12 0 -9 3 -9 11 -1 7 7 9 20 5 30 -6 15 -9 15 -16 3 -5 -8 -11 -12 -13 -10
-8 10 -145 208 -217 313 -40 59 -76 107 -79 107 -3 -1 -89 -179 -191 -397z"/>
<path d="M10 1058 l0 -476 103 -60 c56 -33 103 -59 104 -58 15 14 241 521 236
529 -9 16 -400 496 -424 522 -19 19 -19 8 -19 -457z"/>
<path d="M1025 1035 c-181 -333 -223 -404 -237 -399 -12 3 -18 0 -18 -10 0
-19 17 -30 23 -14 6 17 4 20 212 -235 97 -120 183 -217 189 -215 7 2 84 45
173 97 l160 93 103 190 c77 143 100 194 94 207 -14 28 -468 690 -474 690 -3 0
-104 -182 -225 -404z"/>
<path d="M470 991 c0 -11 4 -22 9 -25 11 -7 20 14 13 32 -7 19 -22 14 -22 -7z"/>
<path d="M1850 878 c-36 -66 -66 -127 -68 -134 -3 -13 91 -159 110 -170 24
-15 28 24 26 219 l-3 206 -65 -121z"/>
<path d="M366 699 c-65 -138 -114 -254 -110 -259 15 -13 306 -181 309 -178 2
2 47 83 100 181 l97 177 -38 48 c-151 185 -228 277 -234 280 -3 1 -60 -111
-124 -249z"/>
<path d="M1744 747 c-9 -24 6 -44 18 -22 7 11 6 21 -1 28 -7 7 -12 6 -17 -6z"/>
<path d="M1671 549 c-46 -83 -81 -152 -79 -154 1 -2 59 30 128 70 69 41 130
76 135 78 9 3 -78 142 -95 152 -4 2 -44 -63 -89 -146z"/>
<path d="M688 416 l-95 -175 186 -108 186 -109 90 53 c49 29 91 56 93 61 2 8
-301 386 -353 440 -10 11 -30 -19 -107 -162z"/>
</g>
</svg>
